<svg width="119" height="61" viewBox="0 0 119 61" fill="none" xmlns="http://www.w3.org/2000/svg">
<path d="M54.2934 11.2669C56.04 7.23068 55.1553 1.11403 47.1828 0.404037H24.0914H1V6.86493C1 6.86493 41.6328 6.66161 44.4078 7.25757C47.1828 7.85353 47.4222 9.31654 46.8193 11.2669C46.2165 13.2172 27.2255 33.4798 27.2255 33.4798C27.2255 33.4798 43.941 33.3012 45.5309 33.9865C47.1208 34.6717 47.4222 35.8746 43.8789 39.4534C40.3356 43.0321 24.1273 59.333 24.1273 59.333H35.26C35.26 59.333 50.774 44.4233 54.2934 39.4534C57.8128 34.4834 55.9454 28.2356 51.4923 27.5256C47.0392 26.8156 40.2877 27.5256 40.2877 27.5256C40.2877 27.5256 52.5468 15.303 54.2934 11.2669Z" fill="#27066F" stroke="#27066F" stroke-width="0.141998"/>
<path d="M28.1299 11.2081C25.061 10.8333 1 11.2081 1 11.2081V17.3849C1 17.3849 24.1023 16.785 25.061 17.3849C26.0198 17.9849 25.061 19.4439 23.9837 20.5089L1 42.0925H20.3207C20.3207 42.0925 22.0444 42.0925 20.3207 43.7965C18.5969 45.5005 1 59.9132 1 59.9132H11.2708C11.2708 59.9132 26.2102 47.7724 28.2931 44.9325C30.376 42.0925 30.0169 36.7355 26.282 36.2706C22.5472 35.8057 14.862 36.2706 14.862 36.2706C14.862 36.2706 29.0342 24.5404 31.597 20.5089C34.1598 16.4774 31.1987 11.5828 28.1299 11.2081Z" fill="#27066F" stroke="#27066F" stroke-width="0.141998"/>
<path d="M64.0616 60V25.4236H72.6087V60H64.0616Z" fill="#27066F"/>
<path d="M83.3105 13.3538V1.70999H91.8575V6.18292H111.609V25.4236H91.8575V49.3502C91.8575 49.3502 91.8575 52.5451 94.8741 52.5451H118.432V60H89.7746C86.3271 60 83.3105 57.87 83.3105 54.2491V17.4007H102.2V13.3538H83.3105Z" fill="#27066F"/>
<path d="M64.0616 60V25.4236H72.6087V60H64.0616Z" stroke="#27066F" stroke-width="0.141998"/>
<path d="M83.3105 13.3538V1.70999H91.8575V6.18292H111.609V25.4236H91.8575V49.3502C91.8575 49.3502 91.8575 52.5451 94.8741 52.5451H118.432V60H89.7746C86.3271 60 83.3105 57.87 83.3105 54.2491V17.4007H102.2V13.3538H83.3105Z" stroke="#27066F" stroke-width="0.141998"/>
<path d="M76.846 10.9398C76.846 15.6452 72.9872 19.4597 68.2272 19.4597C63.4671 19.4597 59.6083 15.6452 59.6083 10.9398C59.6083 6.23444 63.4671 2.41998 68.2272 2.41998C72.9872 2.41998 76.846 6.23444 76.846 10.9398Z" fill="#27066F"/>
</svg>
